<svg xmlns="http://www.w3.org/2000/svg" xmlns:xlink="http://www.w3.org/1999/xlink" width="300" zoomAndPan="magnify" viewBox="0 0 224.87999 37.5" height="50" preserveAspectRatio="xMidYMid meet" version="1.0"><defs><g/><clipPath id="add80377d4"><path d="M 75 3 L 223.339844 3 L 223.339844 34 L 75 34 Z M 75 3 " clip-rule="nonzero"/></clipPath></defs><g fill="#000000" fill-opacity="1"><g transform="translate(6.192329, 26.879767)"><g><path d="M 14.015625 -8.65625 C 14.941406 -8.351562 15.671875 -7.847656 16.203125 -7.140625 C 16.742188 -6.429688 17.015625 -5.554688 17.015625 -4.515625 C 17.015625 -3.078125 16.457031 -1.960938 15.34375 -1.171875 C 14.238281 -0.390625 12.625 0 10.5 0 L 2.234375 0 L 2.234375 -16.640625 L 10.03125 -16.640625 C 11.988281 -16.640625 13.5 -16.253906 14.5625 -15.484375 C 15.625 -14.710938 16.15625 -13.65625 16.15625 -12.3125 C 16.15625 -11.488281 15.960938 -10.757812 15.578125 -10.125 C 15.203125 -9.488281 14.679688 -9 14.015625 -8.65625 Z M 5.328125 -14.21875 L 5.328125 -9.625 L 9.703125 -9.625 C 10.773438 -9.625 11.597656 -9.816406 12.171875 -10.203125 C 12.753906 -10.597656 13.046875 -11.164062 13.046875 -11.90625 C 13.046875 -12.664062 12.753906 -13.238281 12.171875 -13.625 C 11.597656 -14.019531 10.773438 -14.21875 9.703125 -14.21875 Z M 10.3125 -2.421875 C 12.707031 -2.421875 13.90625 -3.222656 13.90625 -4.828125 C 13.90625 -6.421875 12.707031 -7.21875 10.3125 -7.21875 L 5.328125 -7.21875 L 5.328125 -2.421875 Z M 10.3125 -2.421875 "/></g></g></g><g fill="#000000" fill-opacity="1"><g transform="translate(30.099666, 26.879767)"><g><path d="M 2.234375 -16.640625 L 5.328125 -16.640625 L 5.328125 -2.609375 L 14.015625 -2.609375 L 14.015625 0 L 2.234375 0 Z M 2.234375 -16.640625 "/></g></g></g><g fill="#000000" fill-opacity="1"><g transform="translate(50.157483, 26.879767)"><g><path d="M 9.9375 0.234375 C 8.257812 0.234375 6.738281 -0.128906 5.375 -0.859375 C 4.019531 -1.597656 2.957031 -2.617188 2.1875 -3.921875 C 1.425781 -5.222656 1.046875 -6.6875 1.046875 -8.3125 C 1.046875 -9.945312 1.429688 -11.410156 2.203125 -12.703125 C 2.984375 -14.003906 4.050781 -15.023438 5.40625 -15.765625 C 6.757812 -16.503906 8.273438 -16.875 9.953125 -16.875 C 11.316406 -16.875 12.5625 -16.632812 13.6875 -16.15625 C 14.8125 -15.6875 15.765625 -15 16.546875 -14.09375 L 14.546875 -12.21875 C 13.335938 -13.519531 11.851562 -14.171875 10.09375 -14.171875 C 8.957031 -14.171875 7.9375 -13.921875 7.03125 -13.421875 C 6.132812 -12.921875 5.429688 -12.222656 4.921875 -11.328125 C 4.410156 -10.441406 4.15625 -9.4375 4.15625 -8.3125 C 4.15625 -7.1875 4.410156 -6.179688 4.921875 -5.296875 C 5.429688 -4.410156 6.132812 -3.71875 7.03125 -3.21875 C 7.9375 -2.71875 8.957031 -2.46875 10.09375 -2.46875 C 11.851562 -2.46875 13.335938 -3.125 14.546875 -4.4375 L 16.546875 -2.546875 C 15.765625 -1.640625 14.804688 -0.945312 13.671875 -0.46875 C 12.546875 0 11.300781 0.234375 9.9375 0.234375 Z M 9.9375 0.234375 "/></g></g></g><g clip-path="url(#add80377d4)"><path fill="#1b201f" d="M 75.855469 3.542969 L 230.492188 3.542969 L 230.492188 33.464844 L 75.855469 33.464844 L 75.855469 3.542969 " fill-opacity="1" fill-rule="nonzero"/></g><g fill="#ffffff" fill-opacity="1"><g transform="translate(87.787565, 23.777368)"><g><path d="M 6.578125 0.15625 C 5.460938 0.15625 4.457031 -0.0820312 3.5625 -0.5625 C 2.664062 -1.050781 1.960938 -1.722656 1.453125 -2.578125 C 0.941406 -3.441406 0.6875 -4.414062 0.6875 -5.5 C 0.6875 -6.582031 0.941406 -7.550781 1.453125 -8.40625 C 1.972656 -9.269531 2.679688 -9.941406 3.578125 -10.421875 C 4.472656 -10.910156 5.476562 -11.15625 6.59375 -11.15625 C 7.488281 -11.15625 8.304688 -11 9.046875 -10.6875 C 9.796875 -10.375 10.425781 -9.921875 10.9375 -9.328125 L 9.625 -8.078125 C 8.820312 -8.941406 7.84375 -9.375 6.6875 -9.375 C 5.925781 -9.375 5.242188 -9.207031 4.640625 -8.875 C 4.046875 -8.539062 3.582031 -8.082031 3.25 -7.5 C 2.914062 -6.914062 2.75 -6.25 2.75 -5.5 C 2.75 -4.757812 2.914062 -4.09375 3.25 -3.5 C 3.582031 -2.914062 4.046875 -2.457031 4.640625 -2.125 C 5.242188 -1.800781 5.925781 -1.640625 6.6875 -1.640625 C 7.84375 -1.640625 8.820312 -2.070312 9.625 -2.9375 L 10.9375 -1.6875 C 10.425781 -1.082031 9.796875 -0.625 9.046875 -0.3125 C 8.296875 0 7.472656 0.15625 6.578125 0.15625 Z M 6.578125 0.15625 "/></g></g></g><g fill="#ffffff" fill-opacity="1"><g transform="translate(101.696385, 23.777368)"><g><path d="M 6.625 0.15625 C 5.5 0.15625 4.484375 -0.0820312 3.578125 -0.5625 C 2.679688 -1.050781 1.972656 -1.726562 1.453125 -2.59375 C 0.941406 -3.457031 0.6875 -4.425781 0.6875 -5.5 C 0.6875 -6.570312 0.941406 -7.539062 1.453125 -8.40625 C 1.972656 -9.269531 2.679688 -9.941406 3.578125 -10.421875 C 4.484375 -10.910156 5.5 -11.15625 6.625 -11.15625 C 7.738281 -11.15625 8.742188 -10.910156 9.640625 -10.421875 C 10.546875 -9.941406 11.253906 -9.269531 11.765625 -8.40625 C 12.285156 -7.550781 12.546875 -6.582031 12.546875 -5.5 C 12.546875 -4.414062 12.285156 -3.441406 11.765625 -2.578125 C 11.253906 -1.722656 10.546875 -1.050781 9.640625 -0.5625 C 8.742188 -0.0820312 7.738281 0.15625 6.625 0.15625 Z M 6.625 -1.640625 C 7.351562 -1.640625 8.007812 -1.800781 8.59375 -2.125 C 9.1875 -2.457031 9.648438 -2.921875 9.984375 -3.515625 C 10.316406 -4.109375 10.484375 -4.769531 10.484375 -5.5 C 10.484375 -6.238281 10.316406 -6.898438 9.984375 -7.484375 C 9.648438 -8.078125 9.1875 -8.539062 8.59375 -8.875 C 8.007812 -9.207031 7.351562 -9.375 6.625 -9.375 C 5.882812 -9.375 5.21875 -9.207031 4.625 -8.875 C 4.039062 -8.539062 3.582031 -8.078125 3.25 -7.484375 C 2.914062 -6.898438 2.75 -6.238281 2.75 -5.5 C 2.75 -4.769531 2.914062 -4.109375 3.25 -3.515625 C 3.582031 -2.921875 4.039062 -2.457031 4.625 -2.125 C 5.21875 -1.800781 5.882812 -1.640625 6.625 -1.640625 Z M 6.625 -1.640625 "/></g></g></g><g fill="#ffffff" fill-opacity="1"><g transform="translate(117.412497, 23.777368)"><g><path d="M 11.25 -11 L 11.25 0 L 9.578125 0 L 3.5 -7.453125 L 3.5 0 L 1.484375 0 L 1.484375 -11 L 3.15625 -11 L 9.234375 -3.546875 L 9.234375 -11 Z M 11.25 -11 "/></g></g></g><g fill="#ffffff" fill-opacity="1"><g transform="translate(132.625709, 23.777368)"><g><path d="M 4.890625 0.15625 C 4.035156 0.15625 3.210938 0.0351562 2.421875 -0.203125 C 1.628906 -0.441406 1.003906 -0.757812 0.546875 -1.15625 L 1.25 -2.75 C 1.707031 -2.394531 2.257812 -2.101562 2.90625 -1.875 C 3.5625 -1.65625 4.222656 -1.546875 4.890625 -1.546875 C 5.703125 -1.546875 6.3125 -1.675781 6.71875 -1.9375 C 7.125 -2.195312 7.328125 -2.539062 7.328125 -2.96875 C 7.328125 -3.28125 7.210938 -3.539062 6.984375 -3.75 C 6.765625 -3.957031 6.476562 -4.117188 6.125 -4.234375 C 5.78125 -4.347656 5.3125 -4.476562 4.71875 -4.625 C 3.875 -4.820312 3.191406 -5.019531 2.671875 -5.21875 C 2.160156 -5.414062 1.71875 -5.726562 1.34375 -6.15625 C 0.96875 -6.582031 0.78125 -7.15625 0.78125 -7.875 C 0.78125 -8.476562 0.945312 -9.03125 1.28125 -9.53125 C 1.613281 -10.03125 2.109375 -10.425781 2.765625 -10.71875 C 3.429688 -11.007812 4.25 -11.15625 5.21875 -11.15625 C 5.882812 -11.15625 6.539062 -11.070312 7.1875 -10.90625 C 7.84375 -10.738281 8.40625 -10.5 8.875 -10.1875 L 8.234375 -8.59375 C 7.753906 -8.875 7.25 -9.085938 6.71875 -9.234375 C 6.195312 -9.390625 5.691406 -9.46875 5.203125 -9.46875 C 4.398438 -9.46875 3.800781 -9.328125 3.40625 -9.046875 C 3.007812 -8.773438 2.8125 -8.414062 2.8125 -7.96875 C 2.8125 -7.65625 2.921875 -7.398438 3.140625 -7.203125 C 3.367188 -7.003906 3.65625 -6.847656 4 -6.734375 C 4.351562 -6.617188 4.828125 -6.484375 5.421875 -6.328125 C 6.242188 -6.140625 6.914062 -5.941406 7.4375 -5.734375 C 7.957031 -5.535156 8.40625 -5.226562 8.78125 -4.8125 C 9.15625 -4.394531 9.34375 -3.828125 9.34375 -3.109375 C 9.34375 -2.503906 9.175781 -1.953125 8.84375 -1.453125 C 8.507812 -0.960938 8.003906 -0.570312 7.328125 -0.28125 C 6.660156 0.0078125 5.847656 0.15625 4.890625 0.15625 Z M 4.890625 0.15625 "/></g></g></g><g fill="#ffffff" fill-opacity="1"><g transform="translate(144.994398, 23.777368)"><g><path d="M 6.203125 0.15625 C 4.679688 0.15625 3.5 -0.269531 2.65625 -1.125 C 1.8125 -1.976562 1.390625 -3.203125 1.390625 -4.796875 L 1.390625 -11 L 3.421875 -11 L 3.421875 -4.875 C 3.421875 -2.71875 4.351562 -1.640625 6.21875 -1.640625 C 8.070312 -1.640625 9 -2.71875 9 -4.875 L 9 -11 L 11.015625 -11 L 11.015625 -4.796875 C 11.015625 -3.203125 10.59375 -1.976562 9.75 -1.125 C 8.90625 -0.269531 7.722656 0.15625 6.203125 0.15625 Z M 6.203125 0.15625 "/></g></g></g><g fill="#ffffff" fill-opacity="1"><g transform="translate(159.877584, 23.777368)"><g><path d="M 1.484375 -11 L 3.515625 -11 L 3.515625 -1.734375 L 9.28125 -1.734375 L 9.28125 0 L 1.484375 0 Z M 1.484375 -11 "/></g></g></g><g fill="#ffffff" fill-opacity="1"><g transform="translate(171.774802, 23.777368)"><g><path d="M 3.703125 -9.28125 L 0.0625 -9.28125 L 0.0625 -11 L 9.40625 -11 L 9.40625 -9.28125 L 5.75 -9.28125 L 5.75 0 L 3.703125 0 Z M 3.703125 -9.28125 "/></g></g></g><g fill="#ffffff" fill-opacity="1"><g transform="translate(183.71917, 23.777368)"><g><path d="M 1.484375 -11 L 3.515625 -11 L 3.515625 0 L 1.484375 0 Z M 1.484375 -11 "/></g></g></g><g fill="#ffffff" fill-opacity="1"><g transform="translate(191.216014, 23.777368)"><g><path d="M 11.25 -11 L 11.25 0 L 9.578125 0 L 3.5 -7.453125 L 3.5 0 L 1.484375 0 L 1.484375 -11 L 3.15625 -11 L 9.234375 -3.546875 L 9.234375 -11 Z M 11.25 -11 "/></g></g></g><g fill="#ffffff" fill-opacity="1"><g transform="translate(206.429224, 23.777368)"><g><path d="M 8.984375 -5.625 L 10.921875 -5.625 L 10.921875 -1.234375 C 10.359375 -0.785156 9.695312 -0.441406 8.9375 -0.203125 C 8.1875 0.0351562 7.414062 0.15625 6.625 0.15625 C 5.5 0.15625 4.484375 -0.0820312 3.578125 -0.5625 C 2.679688 -1.050781 1.972656 -1.722656 1.453125 -2.578125 C 0.941406 -3.441406 0.6875 -4.414062 0.6875 -5.5 C 0.6875 -6.582031 0.941406 -7.550781 1.453125 -8.40625 C 1.972656 -9.269531 2.6875 -9.941406 3.59375 -10.421875 C 4.5 -10.910156 5.519531 -11.15625 6.65625 -11.15625 C 7.570312 -11.15625 8.40625 -11.003906 9.15625 -10.703125 C 9.914062 -10.398438 10.550781 -9.957031 11.0625 -9.375 L 9.78125 -8.109375 C 8.9375 -8.953125 7.925781 -9.375 6.75 -9.375 C 5.96875 -9.375 5.273438 -9.207031 4.671875 -8.875 C 4.066406 -8.550781 3.59375 -8.097656 3.25 -7.515625 C 2.914062 -6.929688 2.75 -6.257812 2.75 -5.5 C 2.75 -4.769531 2.914062 -4.109375 3.25 -3.515625 C 3.59375 -2.929688 4.066406 -2.472656 4.671875 -2.140625 C 5.273438 -1.804688 5.960938 -1.640625 6.734375 -1.640625 C 7.585938 -1.640625 8.335938 -1.828125 8.984375 -2.203125 Z M 8.984375 -5.625 "/></g></g></g></svg>